<?xml version="1.0" encoding="iso-8859-1"?>
<!-- Generator: Adobe Illustrator 19.0.0, SVG Export Plug-In . SVG Version: 6.00 Build 0)  -->
<svg version="1.1" id="Capa_1" xmlns="http://www.w3.org/2000/svg" xmlns:xlink="http://www.w3.org/1999/xlink" x="0px" y="0px"
	 viewBox="0 0 512 512" style="enable-background:new 0 0 512 512;" xml:space="preserve">
<g>
	<path style="fill:#7FDC48;" d="M318.712,232.465c5.483-6.437,4.705-16.107-1.728-21.583l-30.754-26.195
		c-13.809-11.766-21.729-28.912-21.729-47.052v-0.705l23.754-23.754c5.979-5.979,5.979-15.673,0-21.652
		c-5.979-5.979-15.673-5.979-21.652,0l-2.102,2.102v-4.78c0-8.455-6.855-15.31-15.31-15.31c-8.455,0-15.31,6.855-15.31,15.31v4.78
		l-2.102-2.102c-5.979-5.979-15.673-5.979-21.652,0c-5.979,5.979-5.979,15.673,0,21.652l23.754,23.754v0.705
		c0,24.642,9.771,48.059,27.042,65.33c1.74,1.74,3.56,3.422,5.452,5.032l30.754,26.195
		C303.565,239.675,313.229,238.902,318.712,232.465z"/>
	<path style="fill:#7FDC48;" d="M173.869,246.516l-26.195-30.755c-17.588-20.642-43.236-32.494-70.361-32.494h-0.706l-23.754-23.754
		c-5.979-5.979-15.673-5.979-21.652,0c-5.979,5.979-5.979,15.673,0,21.652l2.102,2.102h-4.78c-8.455,0-15.31,6.855-15.31,15.31
		c0,4.228,1.714,8.055,4.484,10.827c2.77,2.77,6.599,4.484,10.827,4.484h4.78l-2.102,2.102c-5.979,5.979-5.979,15.673,0,21.652
		c5.979,5.979,15.673,5.979,21.652,0l23.755-23.755h0.705c18.139,0,35.284,7.918,47.051,21.729l26.195,30.754
		c5.485,6.433,15.146,7.211,21.583,1.728C178.579,262.616,179.353,252.953,173.869,246.516z"/>
</g>
<path style="fill:#B7F07D;" d="M29.029,478.298c-0.672-0.672-1.288-1.414-1.836-2.22c-0.683-1.006-16.815-25.02-23.89-58.911
	c-9.609-46.022,1.85-88.242,33.134-122.095c18.145-19.634,41.312-34.554,66.998-43.148c24.759-8.284,51.962-10.758,78.665-7.156
	c73.607,9.932,121.542-18.731,142.56-85.217c-4.566-12.567-11.658-42.334,6.431-76.092c9.474-17.678,27.679-36.261,47.513-48.495
	c25.081-15.472,49.12-18.822,67.688-9.432c41.622,21.048,35.597,99.37,18.564,133.309c-9.614,19.156-26.659,33.156-50.705,41.669
	c-14.392,45.417-37.79,80.97-69.628,105.768c-44.156,34.393-103.28,46.877-175.728,37.101c-36.387-4.91-57.026,11.08-62.485,16.097
	c-42.651,39.201-51.159,109.033-51.241,109.734c-0.735,6.356-5.344,11.595-11.558,13.122
	C38.243,483.625,32.765,482.035,29.029,478.298z"/>
<g>
	<path style="fill:#46A655;" d="M494.011,348.668l-2.102-2.102h4.78c8.455,0,15.31-6.855,15.31-15.31
		c0.001-8.456-6.854-15.309-15.31-15.31h-4.78l2.102-2.102c5.979-5.979,5.979-15.673,0-21.652c-5.979-5.979-15.673-5.979-21.652,0
		l-23.754,23.754H447.9c-18.139-0.001-35.286-7.919-47.051-21.729l-26.195-30.754c-5.487-6.426-15.146-7.21-21.583-1.728
		c-6.438,5.483-7.211,15.146-1.728,21.584l26.195,30.754c1.613,1.892,3.291,3.711,5.034,5.454
		c17.268,17.268,40.688,27.04,65.328,27.04h0.705l23.755,23.755c5.979,5.979,15.673,5.979,21.652,0
		C499.99,364.342,499.99,354.648,494.011,348.668z"/>
	<path style="fill:#46A655;" d="M286.539,460.909l-18.16-28.263l0.149-0.687c5.768-26.505-0.352-54.084-16.789-75.663l-24.48-32.136
		c-5.122-6.723-14.732-8.025-21.457-2.901c-6.726,5.125-8.025,14.731-2.902,21.457l24.481,32.134
		c10.992,14.431,15.084,32.872,11.228,50.596l-0.15,0.689l-28.261,18.16c-7.113,4.571-9.175,14.044-4.604,21.157
		c0.607,0.944,1.3,1.799,2.063,2.562c4.982,4.982,12.925,6.006,19.094,2.041l2.5-1.607l-1.017,4.671
		c-1.151,5.288,0.581,10.532,4.143,14.094c2.004,2.004,4.587,3.475,7.562,4.123c8.263,1.797,16.418-3.443,18.215-11.704l1.017-4.672
		l1.608,2.502c4.574,7.112,14.044,9.175,21.157,4.604C289.048,477.496,291.11,468.024,286.539,460.909z"/>
</g>
<g>
	<path style="fill:#7FDC48;" d="M55.068,469.21c0.027-0.228,0.944-7.758,3.633-19.159l-28.936,28.936
		c3.699,3.24,8.815,4.556,13.745,3.346C49.723,480.805,54.334,475.567,55.068,469.21z"/>
	<path style="fill:#7FDC48;" d="M464.856,158.841c13.743-27.383,20.312-83.651,0.48-115.426l-299.6,299.599
		c1.008,0.106,2.025,0.225,3.059,0.363c72.448,9.775,131.572-2.707,175.728-37.101c31.838-24.798,55.236-60.351,69.628-105.768
		C438.196,191.998,455.242,177.998,464.856,158.841z"/>
</g>
<g>
</g>
<g>
</g>
<g>
</g>
<g>
</g>
<g>
</g>
<g>
</g>
<g>
</g>
<g>
</g>
<g>
</g>
<g>
</g>
<g>
</g>
<g>
</g>
<g>
</g>
<g>
</g>
<g>
</g>
</svg>
